<?xml version="1.0" encoding="UTF-8" standalone="no"?>
<!DOCTYPE svg PUBLIC "-//W3C//DTD SVG 1.1//EN" "http://www.w3.org/Graphics/SVG/1.1/DTD/svg11.dtd">
<svg width="100%" height="100%" viewBox="0 0 1211 252" version="1.1" xmlns="http://www.w3.org/2000/svg" xmlns:xlink="http://www.w3.org/1999/xlink" xml:space="preserve" xmlns:serif="http://www.serif.com/" style="fill-rule:evenodd;clip-rule:evenodd;stroke-linejoin:round;stroke-miterlimit:2;">
    <g transform="matrix(1,0,0,1,-831.411,-602.202)">
        <path d="M1768.73,649.667C1790.37,649.667 1798.05,659.44 1800.14,678.286L1853.89,678.286C1852.15,631.868 1824.23,602.202 1768.73,602.202C1713.24,602.202 1686.72,631.17 1686.72,671.655C1686.72,710.046 1703.82,727.846 1748.14,744.249L1770.83,752.626C1795.96,762.049 1803.29,766.935 1803.29,783.688C1803.29,799.044 1795.26,806.025 1773.27,806.025C1748.14,806.025 1739.42,798.695 1734.53,777.406L1680.78,777.406C1687.06,831.851 1720.92,853.49 1773.62,853.49C1832.25,853.49 1859.13,827.663 1859.13,780.896C1859.13,743.202 1844.82,725.403 1795.61,706.207L1770.48,696.435C1749.89,688.408 1742.56,683.87 1742.56,669.91C1742.56,657.695 1749.54,649.667 1768.73,649.667ZM1196.02,829.093C1175.19,844.426 1149.47,853.49 1121.64,853.49C1052.3,853.49 996,797.191 996,727.846C996,658.501 1052.3,602.202 1121.64,602.202C1144.23,602.202 1165.43,608.173 1183.75,618.621C1175.86,616.817 1167.65,615.865 1159.22,615.865C1098.63,615.865 1049.44,665.056 1049.44,725.644C1049.44,786.233 1098.63,835.423 1159.22,835.423C1172.13,835.423 1184.52,833.191 1196.02,829.093ZM1225,637.772L1225,605.692L1279.45,605.692L1279.45,802.534L1380.31,802.534L1380.31,850L1225,850L1225,813.516C1251.71,793.483 1269,761.567 1269,725.644C1269,689.721 1251.71,657.805 1225,637.772ZM831.411,850L993.701,850L993.701,802.534L885.857,802.534L885.857,747.74L976.251,747.74L976.251,700.274L885.857,700.274L885.857,653.157L993.701,653.157L993.701,605.692L831.411,605.692L831.411,850ZM1395.67,850L1450.11,850L1450.11,605.692L1395.67,605.692L1395.67,850ZM1879.4,850L2041.69,850L2041.69,802.534L1933.84,802.534L1933.84,747.74L2024.24,747.74L2024.24,700.274L1933.84,700.274L1933.84,653.157L2041.69,653.157L2041.69,605.692L1879.4,605.692L1879.4,850ZM1578.9,764.841C1630.2,764.841 1667.2,738.665 1667.2,691.549L1667.2,679.333C1667.2,632.217 1633.34,605.692 1577.85,605.692L1491.99,605.692L1491.99,850L1546.44,850L1546.44,764.841L1578.9,764.841ZM1573.66,653.157C1599.14,653.157 1611.36,664.326 1611.36,681.776L1611.36,689.106C1611.36,706.207 1599.14,717.376 1573.66,717.376L1546.44,717.376L1546.44,653.157L1573.66,653.157Z" style="fill-rule:nonzero;"/>
    </g>
</svg>
