<svg id="visual" viewBox="0 0 960 540" width="960" height="540" xmlns="http://www.w3.org/2000/svg" xmlns:xlink="http://www.w3.org/1999/xlink" version="1.1"><rect x="0" y="0" width="960" height="540" fill="#e1e1e1"></rect><path d="M0 353L14.5 352.2C29 351.3 58 349.7 87.2 356.8C116.3 364 145.7 380 174.8 381.3C204 382.7 233 369.3 262 368.5C291 367.7 320 379.3 349 382.8C378 386.3 407 381.7 436.2 375.2C465.3 368.7 494.7 360.3 523.8 359.2C553 358 582 364 611 368.7C640 373.3 669 376.7 698 381.3C727 386 756 392 785.2 387.3C814.3 382.7 843.7 367.3 872.8 359.7C902 352 931 352 945.5 352L960 352L960 541L945.5 541C931 541 902 541 872.8 541C843.7 541 814.3 541 785.2 541C756 541 727 541 698 541C669 541 640 541 611 541C582 541 553 541 523.8 541C494.7 541 465.3 541 436.2 541C407 541 378 541 349 541C320 541 291 541 262 541C233 541 204 541 174.8 541C145.7 541 116.3 541 87.2 541C58 541 29 541 14.5 541L0 541Z" fill="#d8d8d8"></path><path d="M0 407L14.5 408.8C29 410.7 58 414.3 87.2 414C116.3 413.7 145.7 409.3 174.8 405.7C204 402 233 399 262 395.5C291 392 320 388 349 381.8C378 375.7 407 367.3 436.2 368.3C465.3 369.3 494.7 379.7 523.8 390C553 400.3 582 410.7 611 407.5C640 404.3 669 387.7 698 382.5C727 377.3 756 383.7 785.2 382C814.3 380.3 843.7 370.7 872.8 367C902 363.3 931 365.7 945.5 366.8L960 368L960 541L945.5 541C931 541 902 541 872.8 541C843.7 541 814.3 541 785.2 541C756 541 727 541 698 541C669 541 640 541 611 541C582 541 553 541 523.8 541C494.7 541 465.3 541 436.2 541C407 541 378 541 349 541C320 541 291 541 262 541C233 541 204 541 174.8 541C145.7 541 116.3 541 87.2 541C58 541 29 541 14.5 541L0 541Z" fill="#aaaaaa"></path><path d="M0 417L14.5 417C29 417 58 417 87.2 417.5C116.3 418 145.7 419 174.8 421C204 423 233 426 262 422.5C291 419 320 409 349 404.3C378 399.7 407 400.3 436.2 401.3C465.3 402.3 494.7 403.7 523.8 409.5C553 415.3 582 425.7 611 432.8C640 440 669 444 698 442C727 440 756 432 785.2 430.2C814.3 428.3 843.7 432.7 872.8 432C902 431.3 931 425.7 945.5 422.8L960 420L960 541L945.5 541C931 541 902 541 872.8 541C843.7 541 814.3 541 785.2 541C756 541 727 541 698 541C669 541 640 541 611 541C582 541 553 541 523.8 541C494.7 541 465.3 541 436.2 541C407 541 378 541 349 541C320 541 291 541 262 541C233 541 204 541 174.8 541C145.7 541 116.3 541 87.2 541C58 541 29 541 14.5 541L0 541Z" fill="#7e7e7e"></path><path d="M0 432L14.5 435.7C29 439.3 58 446.7 87.2 446.2C116.3 445.7 145.7 437.3 174.8 433.3C204 429.3 233 429.7 262 431.8C291 434 320 438 349 440.5C378 443 407 444 436.2 446.2C465.3 448.3 494.7 451.7 523.8 454.3C553 457 582 459 611 459.2C640 459.3 669 457.7 698 456.5C727 455.3 756 454.7 785.2 450.8C814.3 447 843.7 440 872.8 439.7C902 439.3 931 445.7 945.5 448.8L960 452L960 541L945.5 541C931 541 902 541 872.8 541C843.7 541 814.3 541 785.2 541C756 541 727 541 698 541C669 541 640 541 611 541C582 541 553 541 523.8 541C494.7 541 465.3 541 436.2 541C407 541 378 541 349 541C320 541 291 541 262 541C233 541 204 541 174.8 541C145.7 541 116.3 541 87.2 541C58 541 29 541 14.5 541L0 541Z" fill="#555555"></path><path d="M0 469L14.5 467.2C29 465.3 58 461.7 87.2 460.2C116.3 458.7 145.7 459.3 174.8 460C204 460.7 233 461.3 262 465C291 468.7 320 475.3 349 474.8C378 474.3 407 466.7 436.2 465.2C465.3 463.7 494.7 468.3 523.8 471C553 473.7 582 474.3 611 474C640 473.7 669 472.3 698 470.8C727 469.3 756 467.7 785.2 471.2C814.3 474.7 843.7 483.3 872.8 483.8C902 484.3 931 476.7 945.5 472.8L960 469L960 541L945.5 541C931 541 902 541 872.8 541C843.7 541 814.3 541 785.2 541C756 541 727 541 698 541C669 541 640 541 611 541C582 541 553 541 523.8 541C494.7 541 465.3 541 436.2 541C407 541 378 541 349 541C320 541 291 541 262 541C233 541 204 541 174.8 541C145.7 541 116.3 541 87.2 541C58 541 29 541 14.5 541L0 541Z" fill="#2f2f2f"></path><path d="M0 510L14.5 506.3C29 502.7 58 495.3 87.2 495.8C116.3 496.3 145.7 504.7 174.8 506.8C204 509 233 505 262 502.2C291 499.3 320 497.7 349 497C378 496.3 407 496.7 436.2 499.8C465.3 503 494.7 509 523.8 511.8C553 514.7 582 514.3 611 514.3C640 514.3 669 514.7 698 510C727 505.3 756 495.7 785.2 494.7C814.3 493.7 843.7 501.3 872.8 503.2C902 505 931 501 945.5 499L960 497L960 541L945.5 541C931 541 902 541 872.8 541C843.7 541 814.3 541 785.2 541C756 541 727 541 698 541C669 541 640 541 611 541C582 541 553 541 523.8 541C494.7 541 465.3 541 436.2 541C407 541 378 541 349 541C320 541 291 541 262 541C233 541 204 541 174.8 541C145.7 541 116.3 541 87.2 541C58 541 29 541 14.5 541L0 541Z" fill="#090909"></path></svg>